Format                                   : MPEG-4
Format profile                           : Base Media / Version 2
Codec ID                                 : mp42
File size                                : 808 MiB
Duration                                 : 2h 45mn
Overall bit rate mode                    : Variable
Overall bit rate                         : 684 Kbps
Encoded date                             : UTC 2011-11-08 05:20:27
Tagged date                              : UTC 2011-11-08 05:20:27
gsst                                     : 0
gstd                                     : 9901986
gssd                                     : B54EB4EC8MH1324256219770079
gshh                                     :

Video
ID                                       : 1
Format                                   : AVC
Format/Info                              : Advanced Video Codec
Format profile                           : Baseline@L3.0
Format settings, CABAC                   : No
Format settings, ReFrames                : 1 frame
Format settings, GOP                     : M=1, N=30
Codec ID                                 : avc1
Codec ID/Info                            : Advanced Video Coding
Duration                                 : 2h 45mn
Bit rate                                 : 586 Kbps
Maximum bit rate                         : 2 417 Kbps
Width                                    : 640 pixels
Height                                   : 360 pixels
Display aspect ratio                     : 16:9
Frame rate mode                          : Constant
Frame rate                               : 23.976 fps
Color space                              : YUV
Chroma subsampling                       : 4:2:0
Bit depth                                : 8 bits
Scan type                                : Progressive
Bits/(Pixel*Frame)                       : 0.106
Stream size                              : 692 MiB (86%)
Tagged date                              : UTC 2011-11-08 05:21:17

Audio
ID                                       : 2
Format                                   : AAC
Format/Info                              : Advanced Audio Codec
Format profile                           : LC
Codec ID                                 : 40
Duration                                 : 2h 45mn
Bit rate mode                            : Variable
Bit rate                                 : 96.0 Kbps
Maximum bit rate                         : 122 Kbps
Channel(s)                               : 2 channels
Channel positions                        : Front: L R
Sampling rate                            : 44.1 KHz
Compression mode                         : Lossy
Stream size                              : 113 MiB (14%)
Title                                    : IsoMedia File Produced by Google, 5-11-2011
Encoded date                             : UTC 2011-11-08 05:21:11
Tagged date                              : UTC 2011-11-08 05:21:17
